<svg width="128" height="128" viewBox="0 0 128 128" xmlns="http://www.w3.org/2000/svg">
  <defs>
    <linearGradient id="grad1" x1="0%" y1="0%" x2="100%" y2="100%">
      <stop offset="0%" style="stop-color:#667eea;stop-opacity:1" />
      <stop offset="100%" style="stop-color:#764ba2;stop-opacity:1" />
    </linearGradient>
  </defs>
  
  <!-- Background circle -->
  <circle cx="64" cy="64" r="60" fill="url(#grad1)" stroke="#fff" stroke-width="4"/>
  
  <!-- Globe icon -->
  <circle cx="64" cy="64" r="35" fill="none" stroke="#fff" stroke-width="3"/>
  <line x1="29" y1="64" x2="99" y2="64" stroke="#fff" stroke-width="2"/>
  <line x1="64" y1="29" x2="64" y2="99" stroke="#fff" stroke-width="2"/>
  
  <!-- Translation arrows -->
  <g transform="translate(64, 64)">
    <!-- Left arrow -->
    <path d="M -25 -15 L -35 -15 L -30 -20 M -35 -15 L -30 -10" 
          stroke="#fff" stroke-width="2" fill="none" stroke-linecap="round" stroke-linejoin="round"/>
    
    <!-- Right arrow -->
    <path d="M 25 -15 L 35 -15 L 30 -20 M 35 -15 L 30 -10" 
          stroke="#fff" stroke-width="2" fill="none" stroke-linecap="round" stroke-linejoin="round"/>
    
    <!-- Bottom arrow -->
    <path d="M -15 25 L -15 35 L -20 30 M -15 35 L -10 30" 
          stroke="#fff" stroke-width="2" fill="none" stroke-linecap="round" stroke-linejoin="round"/>
    
    <!-- Top arrow -->
    <path d="M -15 -25 L -15 -35 L -20 -30 M -15 -35 L -10 -30" 
          stroke="#fff" stroke-width="2" fill="none" stroke-linecap="round" stroke-linejoin="round"/>
  </g>
  
  <!-- Language symbols -->
  <text x="64" y="75" text-anchor="middle" fill="#fff" font-family="Arial, sans-serif" font-size="12" font-weight="bold">A</text>
  <text x="64" y="90" text-anchor="middle" fill="#fff" font-family="Arial, sans-serif" font-size="12" font-weight="bold">文</text>
</svg> 